<?xml version="1.0" encoding="UTF-8"?>
<svg width="1025px" height="1025px" viewBox="0 0 1025 1025" version="1.1" xmlns="http://www.w3.org/2000/svg" xmlns:xlink="http://www.w3.org/1999/xlink">
    <!-- Generator: Sketch 44.1 (41455) - http://www.bohemiancoding.com/sketch -->
    <title>TBT</title>
    <desc>Created with Sketch.</desc>
    <defs></defs>
    <g id="Final" stroke="none" stroke-width="1" fill="none" fill-rule="evenodd">
        <g id="TBT" transform="translate(-187.000000, -187.000000)">
            <circle id="Oval" fill="#FDED07" transform="translate(699.888738, 699.888738) rotate(-30.000728) translate(-699.888738, -699.888738) " cx="699.888738" cy="699.888738" r="511.888738"></circle>
            <path d="M462.64,846.48 L462.64,630.44 L540.96,630.44 L540.96,553 L295,553 L295,630.44 L373.76,630.44 L373.76,846.48 L462.64,846.48 Z M757,846.48 L572.64,846.48 L572.64,553 L750.84,553 C811.56,553 837.96,593.48 837.96,627.8 C837.96,664.32 816.4,688.96 787.8,695.12 C819.48,699.96 843.68,729 843.68,766.84 C843.68,807.76 815.96,846.48 757,846.48 Z M730.16,661.24 C739.4,661.24 747.76,654.2 747.76,643.64 C747.76,633.52 739.4,626.92 730.16,626.92 L661.52,626.92 L661.52,661.24 L730.16,661.24 Z M732.8,772.56 C745.56,772.56 753.48,765.08 753.48,754.08 C753.48,743.52 745.56,735.16 732.8,735.16 L661.52,735.16 L661.52,772.56 L732.8,772.56 Z M1026.72,846.48 L1026.72,630.44 L1105.04,630.44 L1105.04,553 L859.08,553 L859.08,630.44 L937.84,630.44 L937.84,846.48 L1026.72,846.48 Z" fill="#000000" transform="translate(700.020000, 699.740000) rotate(-34.000000) translate(-700.020000, -699.740000) "></path>
        </g>
    </g>
</svg>