<?xml version="1.0" encoding="UTF-8"?>
<svg width="271px" height="32px" viewBox="0 0 271 32" version="1.1" xmlns="http://www.w3.org/2000/svg" xmlns:xlink="http://www.w3.org/1999/xlink">
    <!-- Generator: Sketch 45.1 (43504) - http://www.bohemiancoding.com/sketch -->
    <title>social-buttons</title>
    <desc>Created with Sketch.</desc>
    <defs>
        <rect id="path-1" x="1.45539087" y="1.45454545" width="32.0185992" height="30.5454545"></rect>
        <rect id="path-2" x="0" y="0" width="32.0185992" height="30.5454545"></rect>
        <rect id="path-3" x="48.0278989" y="1.45454545" width="32.0185992" height="30.5454545"></rect>
        <rect id="path-4" x="46.572508" y="0" width="32.0185992" height="30.5454545"></rect>
        <rect id="path-5" x="94.6004069" y="1.45454545" width="32.0185992" height="30.5454545"></rect>
        <rect id="path-6" x="93.145016" y="0" width="32.0185992" height="30.5454545"></rect>
        <rect id="path-7" x="142.628306" y="1.45454545" width="32.0185992" height="30.5454545"></rect>
        <rect id="path-8" x="141.172915" y="0" width="32.0185992" height="30.5454545"></rect>
        <rect id="path-9" x="190.656205" y="1.45454545" width="32.0185992" height="30.5454545"></rect>
        <rect id="path-10" x="189.200814" y="0" width="32.0185992" height="30.5454545"></rect>
        <rect id="path-11" x="238.684103" y="1.45454545" width="32.0185992" height="30.5454545"></rect>
        <rect id="path-12" x="237.228713" y="0" width="32.0185992" height="30.5454545"></rect>
    </defs>
    <g id="Final" stroke="none" stroke-width="1" fill="none" fill-rule="evenodd">
        <g id="90s-hack" transform="translate(-80.000000, -229.000000)">
            <g id="social-buttons" transform="translate(80.000000, 229.000000)">
                <g id="Rectangle-22">
                    <use fill="#4A4A4A" fill-rule="evenodd" xlink:href="#path-1"></use>
                    <rect stroke="#4A4A4A" stroke-width="2" x="2.45539087" y="2.45454545" width="30.0185992" height="28.5454545"></rect>
                </g>
                <g id="Rectangle-22">
                    <use fill="#EAEAEA" fill-rule="evenodd" xlink:href="#path-2"></use>
                    <rect stroke="#4A4A4A" stroke-width="2" x="1" y="1" width="30.0185992" height="28.5454545"></rect>
                </g>
                <g id="Rectangle-22">
                    <use fill="#4A4A4A" fill-rule="evenodd" xlink:href="#path-3"></use>
                    <rect stroke="#4A4A4A" stroke-width="2" x="49.0278989" y="2.45454545" width="30.0185992" height="28.5454545"></rect>
                </g>
                <g id="Rectangle-22">
                    <use fill="#EAEAEA" fill-rule="evenodd" xlink:href="#path-4"></use>
                    <rect stroke="#4A4A4A" stroke-width="2" x="47.572508" y="1" width="30.0185992" height="28.5454545"></rect>
                </g>
                <g id="Rectangle-22">
                    <use fill="#4A4A4A" fill-rule="evenodd" xlink:href="#path-5"></use>
                    <rect stroke="#4A4A4A" stroke-width="2" x="95.6004069" y="2.45454545" width="30.0185992" height="28.5454545"></rect>
                </g>
                <g id="Rectangle-22">
                    <use fill="#EAEAEA" fill-rule="evenodd" xlink:href="#path-6"></use>
                    <rect stroke="#4A4A4A" stroke-width="2" x="94.145016" y="1" width="30.0185992" height="28.5454545"></rect>
                </g>
                <g id="Rectangle-22">
                    <use fill="#4A4A4A" fill-rule="evenodd" xlink:href="#path-7"></use>
                    <rect stroke="#4A4A4A" stroke-width="2" x="143.628306" y="2.45454545" width="30.0185992" height="28.5454545"></rect>
                </g>
                <g id="Rectangle-22">
                    <use fill="#EAEAEA" fill-rule="evenodd" xlink:href="#path-8"></use>
                    <rect stroke="#4A4A4A" stroke-width="2" x="142.172915" y="1" width="30.0185992" height="28.5454545"></rect>
                </g>
                <path d="M157.190822,8.72727273 C153.56924,8.72727273 150.632956,11.6618516 150.632956,15.2813295 C150.632956,18.058611 152.360953,20.4303603 154.800479,21.3847948 C154.743098,20.8662051 154.691455,20.0707064 154.823432,19.5045998 C154.943113,18.9925641 155.592342,16.2464143 155.592342,16.2464143 C155.592342,16.2464143 155.395606,15.8531709 155.395606,15.2731369 C155.395606,14.3637615 155.925154,13.6813204 156.58258,13.6813204 C157.142457,13.6813204 157.41215,14.1015993 157.41215,14.6046231 C157.41215,15.1674527 157.054746,16.0080105 156.869486,16.787124 C156.713737,17.4400719 157.19738,17.9709505 157.84087,17.9709505 C159.004891,17.9709505 159.90168,16.7437034 159.90168,14.970831 C159.90168,13.40605 158.773727,12.3082455 157.162131,12.3082455 C155.296418,12.3082455 154.202894,13.7091751 154.202894,15.1510676 C154.202894,15.716355 154.418484,16.3226052 154.688996,16.6503081 C154.743098,16.7158486 154.750476,16.7731966 154.735721,16.8387372 C154.686537,17.0435515 154.575053,17.4941429 154.55292,17.5842612 C154.524229,17.7071497 154.458651,17.7317274 154.333232,17.6743794 C153.515138,17.2967019 153.001985,16.1005866 153.001985,15.1338632 C153.001985,13.0693353 154.505375,11.1686589 157.335914,11.1686589 C159.609855,11.1686589 161.378839,12.7907879 161.378839,14.9536266 C161.378839,17.2147762 159.952503,19.033527 157.968749,19.033527 C157.304765,19.033527 156.681767,18.689439 156.460439,18.2798104 L156.050573,19.8363989 C155.903021,20.4082404 155.501351,21.1226325 155.230839,21.5568388 C155.845639,21.7452679 156.493229,21.8493136 157.173607,21.8493136 C160.788631,21.8493136 163.731473,18.9163732 163.731473,15.2952568 C163.731473,11.6741405 160.788631,8.7412001 157.173607,8.7412001 L157.190822,8.72727273 Z" id="Shape" fill="#4A4A4A"></path>
                <g id="Rectangle-22">
                    <use fill="#4A4A4A" fill-rule="evenodd" xlink:href="#path-9"></use>
                    <rect stroke="#4A4A4A" stroke-width="2" x="191.656205" y="2.45454545" width="30.0185992" height="28.5454545"></rect>
                </g>
                <g id="Rectangle-22">
                    <use fill="#EAEAEA" fill-rule="evenodd" xlink:href="#path-10"></use>
                    <rect stroke="#4A4A4A" stroke-width="2" x="190.200814" y="1" width="30.0185992" height="28.5454545"></rect>
                </g>
                <g id="Rectangle-22">
                    <use fill="#4A4A4A" fill-rule="evenodd" xlink:href="#path-11"></use>
                    <rect stroke="#4A4A4A" stroke-width="2" x="239.684103" y="2.45454545" width="30.0185992" height="28.5454545"></rect>
                </g>
                <g id="Rectangle-22">
                    <use fill="#EAEAEA" fill-rule="evenodd" xlink:href="#path-12"></use>
                    <rect stroke="#4A4A4A" stroke-width="2" x="238.228713" y="1" width="30.0185992" height="28.5454545"></rect>
                </g>
                <path d="M21.8356841,8.72727273 L10.1829151,8.72727273 C9.78341035,8.72727273 9.46004069,9.05045455 9.46004069,9.44972727 L9.46004069,21.0957273 C9.46004069,21.495 9.78341035,21.8181818 10.1829151,21.8181818 L16.4562865,21.8181818 L16.4562865,16.7487273 L14.7485673,16.7487273 L14.7485673,14.7736364 L16.4562865,14.7736364 L16.4562865,13.3148182 C16.4562865,11.6244545 17.4894321,10.7048182 18.9990363,10.7048182 C19.7219108,10.7048182 20.3432717,10.7571818 20.524195,10.7817273 L20.524195,12.549 L19.4763136,12.549 C18.6576562,12.549 18.498018,12.9417273 18.498018,13.5144545 L18.498018,14.7744545 L20.4546091,14.7744545 L20.2008253,16.7544545 L18.498018,16.7544545 L18.498018,21.8181818 L21.8356841,21.8181818 C22.2351889,21.8181818 22.5585586,21.495 22.5585586,21.0957273 L22.5585586,9.44972727 C22.5585586,9.05045455 22.2351889,8.72727273 21.8356841,8.72727273" id="Shape" fill="#4A4A4A"></path>
                <path d="M69.8305814,10.8618477 C69.2942412,11.0980637 68.721539,11.2588723 68.11702,11.3315541 C68.7324476,10.9617852 69.2060633,10.3776049 69.4287808,9.68167623 C68.8524424,10.0178298 68.2133794,10.263131 67.5334092,10.3994095 C66.9897966,9.81795469 66.215285,9.45454545 65.3553226,9.45454545 C63.708122,9.45454545 62.3718168,10.7900744 62.3718168,12.4345012 C62.3718168,12.6707172 62.3990883,12.8978479 62.4490861,13.1158935 C59.9691946,12.9977855 57.7701999,11.8076202 56.2984461,10.0087445 C56.0402756,10.4457441 55.8948274,10.9545171 55.8948274,11.5087161 C55.8948274,12.5444325 56.4220771,13.4556811 57.2220421,13.9908012 C56.7329726,13.9753563 56.2720837,13.8408949 55.870283,13.6183067 L55.870283,13.6546477 C55.870283,15.0991994 56.8975108,16.305718 58.2638147,16.580092 C58.0129166,16.6473227 57.7492918,16.6836636 57.4774855,16.6836636 C57.2865847,16.6836636 57.1047745,16.6654932 56.9229643,16.6309693 C57.3047657,17.8156834 58.4047176,18.6778718 59.7137513,18.7024019 C58.695614,19.5019022 57.4047614,19.9779683 56.0139131,19.9779683 C55.7775598,19.9779683 55.5412065,19.9643405 55.3048532,19.9370848 C56.6320679,20.7820112 58.1956359,21.2762478 59.886471,21.2762478 C65.3771399,21.2762478 68.3770086,16.7336324 68.3770086,12.7997274 C68.3770086,12.6725342 68.3770086,12.545341 68.3679181,12.4181477 C68.9497108,12.0002271 69.4587795,11.4732837 69.858762,10.8736585 L69.8305814,10.8618477 Z" id="Shape" fill="#4A4A4A"></path>
                <path d="M102.0536,10.9090909 C101.95515,10.9090909 101.877361,10.9901818 101.877361,11.0909091 L101.877361,11.625 L109.518163,17.0056727 L117.158965,11.625 L117.158965,11.0909091 C117.158965,10.9901818 117.081177,10.9090909 116.982727,10.9090909 L102.0536,10.9090909 Z M101.877361,12.5170545 L101.877361,20.1818182 C101.877361,20.2825455 101.95515,20.3636364 102.0536,20.3636364 L116.982727,20.3636364 C117.081177,20.3636364 117.158965,20.2825455 117.158965,20.1818182 L117.158965,12.5170545 L109.728513,17.75 C109.602489,17.8392263 109.433837,17.8392263 109.307814,17.75 L101.877361,12.5170545 Z" id="Shape" fill="#4A4A4A" fill-rule="nonzero"></path>
                <path d="M206.564583,21.4044311 C203.872292,21.4044311 202.848809,19.4204558 202.848809,18.0180451 L202.848809,13.8757837 L201.571636,13.8757837 L201.571636,12.2388456 C203.490171,11.5455635 203.956327,9.81116976 204.060975,8.82235141 C204.068902,8.75421169 204.122019,8.72727273 204.152145,8.72727273 L206.01122,8.72727273 L206.01122,11.9567788 L208.548126,11.9567788 L208.548126,13.8757837 L206.000914,13.8757837 L206.000914,17.8215492 C206.008842,18.3500282 206.19911,19.0734186 207.167891,19.0734186 L207.215458,19.0734186 C207.548427,19.0639107 208.000313,18.9656627 208.238148,18.8531529 L208.848591,20.662025 C208.618683,20.9979697 207.580138,21.3877923 206.652582,21.4036387 L206.558241,21.4036387 L206.564583,21.4044311 Z" id="Shape" fill="#4A4A4A"></path>
                <g id="Group-2" transform="translate(245.233362, 16.727273)" fill="#4A4A4A">
                    <ellipse id="Oval-2" cx="1.81923859" cy="1.81818182" rx="1.81923859" ry="1.81818182"></ellipse>
                    <ellipse id="Oval-2" cx="8.36849753" cy="1.81818182" rx="1.81923859" ry="1.81818182"></ellipse>
                    <ellipse id="Oval-2" cx="14.9177565" cy="1.81818182" rx="1.81923859" ry="1.81818182"></ellipse>
                </g>
            </g>
        </g>
    </g>
</svg>